<?xml version="1.0" encoding="UTF-8" standalone="no"?>
<svg xmlns="http://www.w3.org/2000/svg" xmlns:xlink="http://www.w3.org/1999/xlink" xml:space="preserve" width="64" height="64" version="1.0" viewBox="0 0 256 256">
  <defs>
    <linearGradient id="a" x1="87.396973" x2="240.94727" y1="141.97266" y2="141.97266" gradientTransform="translate(-129.3706 -94.56783) scale(1.56769)" gradientUnits="userSpaceOnUse">
      <stop offset="0" stop-color="#fff" stop-opacity=".66666675"/>
      <stop offset=".24074516" stop-color="#d7d7d7" stop-opacity=".21875"/>
      <stop offset=".4585622" stop-color="#4d4d4d" stop-opacity="0"/>
      <stop offset=".71891773" stop-color="#fff" stop-opacity=".51041669"/>
      <stop offset=".87351298" stop-color="#f2f2f2" stop-opacity=".40000001"/>
      <stop offset="1" stop-color="#fff" stop-opacity=".62352943"/>
    </linearGradient>
    <linearGradient xlink:href="#a" id="b" x1="87.396973" x2="269.33331" y1="141.97266" y2="141.97276" gradientTransform="translate(-129.3714 -94.56962) scale(1.56769)" gradientUnits="userSpaceOnUse"/>
  </defs>
  <path fill="#4d4d4d" d="M248.36055 32.472022c-81.08826-42.90179-162.177276 53.37731-243.2655331 7.533036-2.8138833-1.587595-5.09499905-.792266-5.09499905 2.02468V213.97064c0 2.81082 2.28111575 6.57849 5.09499905 8.16455 81.9363991 46.325 163.8735731-52.46409 245.8099731-6.13986 2.81388 1.58682 5.095.79226 5.095-2.02469V42.029738c0-2.810823-2.28112-6.577723-5.095-8.165317-.84814-.479187-1.69629-.943066-2.54444-1.392399z"/>
  <path fill="#e6e6e6" d="M248.36055 37.567021c0 1.853979-14.89154-10.205307-37.30922-11.054219-22.41617-2.351538-52.35541 6.505769-82.45234 15.426609-30.096928 8.899408-60.34849 17.890674-83.388509 15.559803-23.040022-.852739-38.8677397-13.026847-40.1154641-12.399157V217.04096c1.234711-.80222 16.9070381 11.48136 39.7977911 12.39534 22.889987 2.39899 52.99917-6.56931 83.107572-15.50775 30.10919-8.92926 60.21836-17.85624 83.10759-15.43733 22.89075.93235 38.56307 13.21056 39.79702 12.40911V38.95942c-1.27375-.722609-2.54444-1.392399-2.54444-1.392399z"/>
  <path fill="none" d="M0 256V0h256v256"/>
  <path fill="url(#b)" d="M248.35974 206.96001c-80.24012-42.45169-160.480231 51.37712-240.7195788 8.92543V49.039546C87.879509 91.490468 168.11962-2.3375794 248.35974 40.114878V206.96001z"/>
  <text xml:space="preserve" x="34.675468" y="171.6848" font-family="Comic Sans MS" font-size="119.46666718" font-weight="400" style="-inkscape-font-specification:Comic Sans MS"><tspan x="34.675468" y="171.6848">???</tspan></text>
</svg>